<?xml version="1.0" encoding="UTF-8"?>
<svg xmlns="http://www.w3.org/2000/svg" width="64" height="64" viewBox="0 0 64 64" fill="#000">
  <circle cx="58.00" cy="32.00" r="2.2" /><circle cx="57.87" cy="34.55" r="2.2" /><circle cx="57.50" cy="37.07" r="2.2" /><circle cx="56.88" cy="39.55" r="2.2" /><circle cx="56.02" cy="41.95" r="2.2" /><circle cx="54.93" cy="44.26" r="2.2" /><circle cx="53.62" cy="46.44" r="2.2" /><circle cx="52.10" cy="48.49" r="2.2" /><circle cx="50.38" cy="50.38" r="2.2" /><circle cx="48.49" cy="52.10" r="2.2" /><circle cx="46.44" cy="53.62" r="2.2" /><circle cx="44.26" cy="54.93" r="2.2" /><circle cx="41.95" cy="56.02" r="2.2" /><circle cx="39.55" cy="56.88" r="2.2" /><circle cx="37.07" cy="57.50" r="2.2" /><circle cx="34.55" cy="57.87" r="2.2" /><circle cx="32.00" cy="58.00" r="2.2" /><circle cx="29.45" cy="57.87" r="2.2" /><circle cx="26.93" cy="57.50" r="2.2" /><circle cx="24.45" cy="56.88" r="2.2" /><circle cx="22.05" cy="56.02" r="2.2" /><circle cx="19.74" cy="54.93" r="2.2" /><circle cx="17.56" cy="53.62" r="2.2" /><circle cx="15.51" cy="52.10" r="2.2" /><circle cx="13.62" cy="50.38" r="2.2" /><circle cx="11.90" cy="48.49" r="2.2" /><circle cx="10.38" cy="46.44" r="2.2" /><circle cx="9.07" cy="44.26" r="2.2" /><circle cx="7.98" cy="41.95" r="2.2" /><circle cx="7.12" cy="39.55" r="2.2" /><circle cx="6.50" cy="37.07" r="2.2" /><circle cx="6.13" cy="34.55" r="2.2" /><circle cx="6.00" cy="32.00" r="2.2" /><circle cx="6.13" cy="29.45" r="2.2" /><circle cx="6.50" cy="26.93" r="2.2" /><circle cx="7.12" cy="24.45" r="2.2" /><circle cx="7.98" cy="22.05" r="2.2" /><circle cx="9.07" cy="19.74" r="2.2" /><circle cx="10.38" cy="17.56" r="2.2" /><circle cx="11.90" cy="15.51" r="2.2" /><circle cx="13.62" cy="13.62" r="2.2" /><circle cx="15.51" cy="11.90" r="2.2" /><circle cx="17.56" cy="10.38" r="2.2" /><circle cx="19.74" cy="9.07" r="2.2" /><circle cx="22.05" cy="7.98" r="2.2" /><circle cx="24.45" cy="7.12" r="2.2" /><circle cx="26.93" cy="6.50" r="2.2" /><circle cx="29.45" cy="6.13" r="2.2" /><circle cx="32.00" cy="6.00" r="2.2" /><circle cx="34.55" cy="6.13" r="2.2" /><circle cx="37.07" cy="6.50" r="2.2" /><circle cx="39.55" cy="7.12" r="2.2" /><circle cx="41.95" cy="7.98" r="2.2" /><circle cx="44.26" cy="9.07" r="2.2" /><circle cx="46.44" cy="10.38" r="2.2" /><circle cx="48.49" cy="11.90" r="2.2" /><circle cx="50.38" cy="13.62" r="2.2" /><circle cx="52.10" cy="15.51" r="2.2" /><circle cx="53.62" cy="17.56" r="2.2" /><circle cx="54.93" cy="19.74" r="2.2" /><circle cx="56.02" cy="22.05" r="2.2" /><circle cx="56.88" cy="24.45" r="2.2" /><circle cx="57.50" cy="26.93" r="2.2" /><circle cx="57.87" cy="29.45" r="2.2" />
</svg>
